<svg width="31" height="31" viewBox="0 0 31 31" fill="none" xmlns="http://www.w3.org/2000/svg">
<circle opacity="0.6" cx="15.5" cy="15.5" r="14.5" stroke="white" stroke-width="2" stroke-linecap="round" stroke-linejoin="round"/>
<path opacity="0.8" d="M15.3909 6.02014V24.0625" stroke="white" stroke-width="2" stroke-linecap="round" stroke-linejoin="round"/>
<path d="M19.1188 9.30052H13.5272C12.8351 9.30052 12.1714 9.60294 11.682 10.1412C11.1926 10.6795 10.9177 11.4096 10.9177 12.1709C10.9177 12.9322 11.1926 13.6622 11.682 14.2005C12.1714 14.7388 12.8351 15.0413 13.5272 15.0413H17.2549C17.947 15.0413 18.6107 15.3437 19.1 15.882C19.5894 16.4203 19.8643 17.1504 19.8643 17.9116C19.8643 18.6729 19.5894 19.403 19.1 19.9413C18.6107 20.4796 17.947 20.782 17.2549 20.782H10.9177" stroke="white" stroke-width="2" stroke-linecap="round" stroke-linejoin="round"/>
</svg>
