<svg width="25" height="30" viewBox="0 0 25 30" fill="none" xmlns="http://www.w3.org/2000/svg">
<path d="M6.73486 29.414C6.14962 29.0292 5.63094 28.5538 5.19874 28.0059C4.72333 27.4404 4.28285 26.8471 3.87969 26.2293C2.93361 24.8595 2.19167 23.3624 1.67663 21.784C1.05792 19.9505 0.758301 18.1931 0.758301 16.4743C0.758301 14.5546 1.17851 12.8788 2.00036 11.4707C2.60959 10.3701 3.50532 9.45036 4.59487 8.80665C5.65077 8.15849 6.86402 7.80378 8.10678 7.7799C8.54183 7.7799 9.01027 7.84224 9.50747 7.96142C9.86459 8.06134 10.2996 8.21902 10.8312 8.4152C11.5074 8.67281 11.8794 8.83049 12.0055 8.86899C12.4016 9.012 12.7346 9.07434 12.9962 9.07434C13.1947 9.07434 13.4748 9.012 13.793 8.91666C13.972 8.85432 14.3097 8.74431 14.793 8.53988C15.2716 8.36753 15.6482 8.21994 15.9478 8.10993C16.407 7.97608 16.8513 7.85233 17.2474 7.78999C17.717 7.71683 18.1935 7.69745 18.6676 7.73223C19.4891 7.7853 20.2982 7.95734 21.0691 8.24286C22.3297 8.74431 23.3492 9.52721 24.108 10.6401C23.7872 10.8355 23.4862 11.0608 23.2091 11.313C22.6058 11.8416 22.0919 12.4621 21.6869 13.1511C21.1575 14.0926 20.8831 15.1533 20.8901 16.2304C20.9096 17.5533 21.2528 18.7184 21.929 19.7259C22.4262 20.4726 23.0723 21.1112 23.8278 21.6025C24.2146 21.8601 24.5476 22.037 24.8667 22.1562C24.7174 22.6146 24.5578 23.0583 24.3695 23.4983C23.9425 24.4851 23.4249 25.4311 22.8232 26.3246C22.2871 27.0938 21.8669 27.6667 21.5478 28.0481C21.0506 28.6302 20.5719 29.0748 20.0886 29.3847C19.5571 29.7331 18.9291 29.9192 18.291 29.9192C17.8587 29.9356 17.4266 29.8839 17.0109 29.7661C16.6537 29.6469 16.3003 29.5176 15.9525 29.37C15.5908 29.2059 15.2179 29.0671 14.8366 28.9547C13.8938 28.7154 12.9054 28.7139 11.9619 28.9502C11.5751 29.0602 11.2031 29.1885 10.8358 29.3462C10.3191 29.5607 9.97591 29.7046 9.7774 29.7661C9.38131 29.8807 8.97038 29.9522 8.55482 29.976C7.91199 29.976 7.31275 29.7945 6.71909 29.4269L6.73486 29.414ZM15.2132 6.8485C14.3727 7.26378 13.5704 7.44071 12.7736 7.38295C12.6483 6.58997 12.7736 5.77866 13.1066 4.89034C13.3901 4.13776 13.809 3.44206 14.3431 2.83685C14.9071 2.19973 15.5914 1.67751 16.3578 1.29947C17.1741 0.884191 17.9524 0.65959 18.6963 0.626587C18.7928 1.45715 18.6963 2.27397 18.3874 3.15679C18.1016 3.93719 17.6834 4.66384 17.1509 5.30562C16.6074 5.94361 15.9404 6.46785 15.189 6.84758L15.2132 6.8485Z" fill="#C4C4C4"/>
</svg>
