<svg width="17" height="16" viewBox="0 0 17 16" fill="none" xmlns="http://www.w3.org/2000/svg">
<path d="M8.13123 0C5.95645 0 5.68542 0.0105013 4.83431 0.0465058C3.97971 0.0885111 3.40163 0.221028 2.89157 0.419052C2.35773 0.620588 1.87428 0.936125 1.47489 1.34367C1.06621 1.74212 0.750501 2.22584 0.550278 2.76035C0.352253 3.27041 0.219737 3.84848 0.177731 4.70309C0.139227 5.55469 0.131226 5.82523 0.131226 8C0.131226 10.1748 0.141727 10.4458 0.177731 11.2969C0.219737 12.149 0.352253 12.7296 0.550278 13.2397C0.751813 13.7735 1.06735 14.257 1.47489 14.6563C1.87334 15.065 2.35707 15.3807 2.89157 15.5809C3.40163 15.7765 3.98221 15.9115 4.83431 15.9535C5.68592 15.992 5.95645 16 8.13123 16C10.306 16 10.577 15.9895 11.4281 15.9535C12.2802 15.9115 12.8608 15.776 13.3709 15.5809C13.9047 15.3794 14.3882 15.0639 14.7876 14.6563C15.1968 14.2583 15.5126 13.7745 15.7122 13.2397C15.9077 12.7296 16.0427 12.149 16.0847 11.2969C16.1232 10.4453 16.1312 10.1748 16.1312 8C16.1312 5.82523 16.1207 5.55419 16.0847 4.70309C16.0427 3.85098 15.9072 3.26741 15.7122 2.76035C15.5106 2.22651 15.1951 1.74305 14.7876 1.34367C14.3895 0.934462 13.9057 0.618667 13.3709 0.419052C12.8608 0.221028 12.2802 0.0885111 11.4281 0.0465058C10.5765 0.008001 10.306 0 8.13123 0ZM8.13123 1.44018C10.267 1.44018 10.522 1.45068 11.3661 1.48669C12.1447 1.52319 12.5688 1.65321 12.8503 1.76322C13.1984 1.8917 13.5134 2.09619 13.7724 2.3618C14.0376 2.61974 14.2413 2.93404 14.3685 3.28141C14.4785 3.56295 14.6085 3.987 14.645 4.7656C14.681 5.6097 14.6915 5.86523 14.6915 8.0005C14.6915 10.1358 14.681 10.3913 14.642 11.2354C14.6 12.014 14.47 12.4381 14.3605 12.7196C14.209 13.0951 14.04 13.3577 13.7609 13.6417C13.501 13.9056 13.1862 14.1092 12.8388 14.2378C12.5608 14.3478 12.1307 14.4778 11.3491 14.5143C10.5005 14.5503 10.2505 14.5608 8.10922 14.5608C5.96796 14.5608 5.71842 14.5503 4.86882 14.5113C4.09022 14.4693 3.66067 14.3393 3.37913 14.2298C2.99908 14.0783 2.73855 13.9092 2.45952 13.6302C2.17798 13.3487 1.99896 13.0806 1.86094 12.7081C1.74893 12.4301 1.62091 12 1.57941 11.2184C1.5509 10.3798 1.5374 10.1198 1.5374 7.9885C1.5374 5.85823 1.5509 5.5977 1.57941 4.74859C1.62091 3.967 1.74893 3.53794 1.86094 3.25891C1.99896 2.87836 2.17848 2.61833 2.45952 2.33679C2.73805 2.05826 2.99908 1.87823 3.37913 1.73722C3.66067 1.6277 4.07972 1.49769 4.86132 1.45868C5.70992 1.42818 5.95995 1.41718 8.09822 1.41718L8.13123 1.44018ZM8.13123 3.89399C7.59183 3.89379 7.05768 3.99989 6.55931 4.20621C6.06093 4.41254 5.6081 4.71505 5.22669 5.09646C4.84528 5.47787 4.54277 5.93071 4.33644 6.42908C4.13011 6.92746 4.02402 7.4616 4.02421 8.001C4.02402 8.5404 4.13011 9.07454 4.33644 9.57292C4.54277 10.0713 4.84528 10.5241 5.22669 10.9055C5.6081 11.2869 6.06093 11.5895 6.55931 11.7958C7.05768 12.0021 7.59183 12.1082 8.13123 12.108C8.67062 12.1082 9.20477 12.0021 9.70315 11.7958C10.2015 11.5895 10.6544 11.2869 11.0358 10.9055C11.4172 10.5241 11.7197 10.0713 11.926 9.57292C12.1323 9.07454 12.2384 8.5404 12.2382 8.001C12.2384 7.4616 12.1323 6.92746 11.926 6.42908C11.7197 5.93071 11.4172 5.47787 11.0358 5.09646C10.6544 4.71505 10.2015 4.41254 9.70315 4.20621C9.20477 3.99989 8.67062 3.89379 8.13123 3.89399ZM8.13123 10.6678C6.65704 10.6678 5.46439 9.47518 5.46439 8.001C5.46439 6.52682 6.65704 5.33417 8.13123 5.33417C9.60541 5.33417 10.7981 6.52682 10.7981 8.001C10.7981 9.47518 9.60541 10.6678 8.13123 10.6678ZM13.3639 3.72997C13.3636 3.98483 13.2622 4.22917 13.0819 4.40929C12.9016 4.58941 12.6571 4.69059 12.4023 4.69059C12.2762 4.69059 12.1515 4.66577 12.035 4.61754C11.9186 4.56931 11.8128 4.49863 11.7237 4.40952C11.6346 4.32041 11.5639 4.21462 11.5157 4.0982C11.4675 3.98177 11.4426 3.85699 11.4426 3.73097C11.4426 3.60495 11.4675 3.48016 11.5157 3.36374C11.5639 3.24731 11.6346 3.14152 11.7237 3.05241C11.8128 2.9633 11.9186 2.89262 12.035 2.84439C12.1515 2.79617 12.2762 2.77135 12.4023 2.77135C12.9308 2.77135 13.3639 3.2014 13.3639 3.72997Z" fill="white"/>
</svg>
