<svg width="68" height="25" viewBox="0 0 68 25" fill="none" xmlns="http://www.w3.org/2000/svg">
<path d="M0 1.01488H11.3442C13.7579 1.01488 15.7233 1.62382 17.2405 2.84168C18.7576 4.03699 19.5162 5.59314 19.5162 7.51015C19.5162 8.54759 19.2519 9.49481 18.7231 10.3518C18.1944 11.2088 17.4703 11.9193 16.5509 12.4831C17.7002 13.0244 18.6197 13.7686 19.3093 14.7158C19.9989 15.6405 20.3438 16.6779 20.3438 17.8281C20.3438 19.8805 19.5622 21.5381 17.999 22.8011C16.4589 24.0641 14.4245 24.6955 11.8959 24.6955H0V1.01488ZM11.0339 5.07442H4.99974V10.6901H11.0339C12.0913 10.6901 12.9418 10.442 13.5855 9.94587C14.2291 9.42715 14.551 8.73929 14.551 7.88227C14.551 7.02526 14.2291 6.34867 13.5855 5.8525C12.9418 5.33378 12.0913 5.07442 11.0339 5.07442ZM11.5166 20.636C12.666 20.636 13.5855 20.3654 14.2751 19.8241C14.9647 19.2603 15.3095 18.5047 15.3095 17.5575C15.3095 16.6554 14.9647 15.9224 14.2751 15.3586C13.5855 14.7948 12.666 14.5129 11.5166 14.5129H4.99974V20.636H11.5166Z" fill="white"/>
<path d="M29.2194 25C27.2884 25 25.7138 24.5038 24.4955 23.5115C23.2771 22.4966 22.668 21.1885 22.668 19.5873C22.668 17.9184 23.3231 16.6103 24.6334 15.6631C25.9437 14.7158 27.7482 14.2422 30.0469 14.2422C30.7825 14.2422 31.5181 14.2986 32.2537 14.4114C32.9893 14.5241 33.7134 14.6933 34.426 14.9188V13.6671C34.426 12.6522 34.1042 11.8854 33.4605 11.3667C32.8169 10.848 31.8744 10.5886 30.6331 10.5886C29.8745 10.5886 29.047 10.7127 28.1505 10.9608C27.2769 11.1863 26.277 11.5471 25.1506 12.0433L23.4266 8.62652C24.8288 7.99504 26.185 7.52142 27.4953 7.20568C28.8286 6.88994 30.1388 6.73207 31.4261 6.73207C33.8398 6.73207 35.7133 7.30717 37.0465 8.45737C38.4028 9.58503 39.0809 11.1863 39.0809 13.2612V24.6955H34.426V23.4777C33.6674 23.9964 32.8628 24.3798 32.0123 24.6279C31.1848 24.876 30.2538 25 29.2194 25ZM27.185 19.4858C27.185 20.1624 27.4838 20.7037 28.0815 21.1096C28.6792 21.493 29.4722 21.6847 30.4607 21.6847C31.2422 21.6847 31.9548 21.5945 32.5985 21.4141C33.2651 21.2111 33.8743 20.9292 34.426 20.5683V17.9296C33.8513 17.7041 33.2421 17.5462 32.5985 17.456C31.9778 17.3433 31.3227 17.2869 30.6331 17.2869C29.5527 17.2869 28.7021 17.4899 28.0815 17.8958C27.4838 18.2792 27.185 18.8092 27.185 19.4858Z" fill="white"/>
<path d="M42.6561 24.6955V1.01488L47.38 0V14.5129L55.1382 7.07037H60.4828L52.0694 15.1556L61 24.6955H54.9658L47.38 16.6441V24.6955H42.6561Z" fill="white"/>
<circle cx="63.5" cy="15.5" r="4.5" fill="#69DADE"/>
</svg>
