<svg width="20" height="16" viewBox="0 0 20 16" fill="none" xmlns="http://www.w3.org/2000/svg">
<path d="M19.8259 1.9006C19.1016 2.21303 18.3135 2.43788 17.5016 2.52545C18.3445 2.02471 18.9757 1.23362 19.2768 0.300601C18.4858 0.771108 17.6194 1.10104 16.7158 1.27575C16.3382 0.872024 15.8814 0.5504 15.3741 0.330915C14.8667 0.11143 14.3195 -0.00121132 13.7667 9.82343e-06C11.53 9.82343e-06 9.73122 1.81303 9.73122 4.03788C9.73122 4.3503 9.76909 4.66273 9.83063 4.96332C6.48152 4.78817 3.49454 3.18817 1.50874 0.738471C1.14691 1.3565 0.957293 2.06019 0.959627 2.77634C0.959627 4.17752 1.67205 5.41302 2.75844 6.13965C2.11822 6.11444 1.49298 5.93846 0.933592 5.62604V5.67575C0.933592 7.63787 2.32057 9.26391 4.16909 9.63787C3.82201 9.72803 3.46497 9.77415 3.10637 9.77515C2.84365 9.77515 2.59513 9.74912 2.34424 9.71361C2.85548 11.3136 4.34424 12.4757 6.11702 12.5136C4.73004 13.6 2.99276 14.2391 1.10637 14.2391C0.767912 14.2391 0.455486 14.2272 0.131226 14.1894C1.92057 15.3373 4.04365 16 6.33004 16C13.7525 16 17.8141 9.85089 17.8141 4.51362C17.8141 4.33847 17.8141 4.16332 17.8022 3.98817C18.588 3.41303 19.2768 2.7006 19.8259 1.9006Z" fill="white"/>
</svg>
